<svg width="15" height="15" viewBox="0 0 15 15" fill="none" xmlns="http://www.w3.org/2000/svg">
<path d="M13.4805 0.146423C13.6757 -0.0487164 13.9923 -0.048798 14.1875 0.146423C14.3827 0.34165 14.3826 0.658205 14.1875 0.853455L7.87402 7.16595L14.1875 13.4794C14.3828 13.6747 14.3827 13.9922 14.1875 14.1874C13.9922 14.3827 13.6748 14.3827 13.4795 14.1874L7.16699 7.87396L0.854492 14.1874C0.659253 14.3827 0.341752 14.3826 0.146484 14.1874C-0.0487778 13.9922 -0.0487778 13.6747 0.146484 13.4794L6.45898 7.16595L0.146484 0.853455C-0.0487473 0.65819 -0.0487676 0.341675 0.146484 0.146423C0.341739 -0.0487981 0.658261 -0.0487981 0.853516 0.146423L7.16699 6.45892L13.4805 0.146423Z" fill="#6B7280"/>
</svg>
